<svg width="18" height="13" viewBox="0 0 18 13" fill="none" xmlns="http://www.w3.org/2000/svg">
<path fill-rule="evenodd" clip-rule="evenodd" d="M9 10.9334C5.7636 10.9334 3.036 9.18792 1.3152 6.50005C3.036 3.81218 5.7636 2.06672 9 2.06672C12.2364 2.06672 14.964 3.81218 16.6848 6.50005C14.964 9.18792 12.2364 10.9334 9 10.9334ZM9 0.800049C5.1696 0.800049 1.9872 2.96098 0.0912014 6.16438C0.0316018 6.26504 0 6.38135 0 6.50005C0 6.61875 0.0316018 6.73506 0.0912014 6.83572C1.9872 10.0391 5.1696 12.2 9 12.2C12.8304 12.2 16.0128 10.0391 17.9088 6.83572C17.9684 6.73506 18 6.61875 18 6.50005C18 6.38135 17.9684 6.26504 17.9088 6.16438C16.0128 2.96098 12.8304 0.800049 9 0.800049ZM9 9.03338C9.63652 9.03338 10.247 8.76648 10.6971 8.29139C11.1471 7.81629 11.4 7.17193 11.4 6.50005C11.4 5.82817 11.1471 5.1838 10.6971 4.70871C10.247 4.23362 9.63652 3.96672 9 3.96672C8.36348 3.96672 7.75303 4.23362 7.30294 4.70871C6.85286 5.1838 6.6 5.82817 6.6 6.50005C6.6 7.17193 6.85286 7.81629 7.30294 8.29139C7.75303 8.76648 8.36348 9.03338 9 9.03338Z" fill="#22272E"/>
</svg>
